<mxfile host="Electron" modified="2023-04-21T20:00:25.972Z" agent="Mozilla/5.0 (Windows NT 10.0; Win64; x64) AppleWebKit/537.36 (KHTML, like Gecko) draw.io/21.1.2 Chrome/106.0.5249.199 Electron/21.4.3 Safari/537.36" etag="YCIFbt3RY9zbYUMD-qoY" version="21.1.2" type="device">
  <diagram name="Page-1" id="3ZNWpio1twOVjBkZWGlh">
    <mxGraphModel dx="1098" dy="820" grid="1" gridSize="10" guides="1" tooltips="1" connect="1" arrows="1" fold="1" page="1" pageScale="1" pageWidth="850" pageHeight="1100" math="0" shadow="0">
      <root>
        <mxCell id="0" />
        <mxCell id="1" parent="0" />
        <mxCell id="CJfr3QqIfbeVyX5R_hRZ-32" style="edgeStyle=orthogonalEdgeStyle;rounded=0;orthogonalLoop=1;jettySize=auto;html=1;exitX=1;exitY=0.5;exitDx=0;exitDy=0;entryX=0;entryY=0.5;entryDx=0;entryDy=0;" parent="1" source="CJfr3QqIfbeVyX5R_hRZ-24" target="CJfr3QqIfbeVyX5R_hRZ-25" edge="1">
          <mxGeometry relative="1" as="geometry" />
        </mxCell>
        <mxCell id="CJfr3QqIfbeVyX5R_hRZ-24" value="&lt;font color=&quot;#ffffff&quot; style=&quot;font-size: 24px;&quot;&gt;N&lt;/font&gt;" style="rounded=1;whiteSpace=wrap;html=1;flipH=1;fillColor=#6C8EBF;strokeColor=#415573;" parent="1" vertex="1">
          <mxGeometry x="350" y="610" width="120" height="60" as="geometry" />
        </mxCell>
        <mxCell id="CJfr3QqIfbeVyX5R_hRZ-33" style="edgeStyle=orthogonalEdgeStyle;rounded=0;orthogonalLoop=1;jettySize=auto;html=1;exitX=1;exitY=0.5;exitDx=0;exitDy=0;entryX=0;entryY=0.5;entryDx=0;entryDy=0;" parent="1" source="CJfr3QqIfbeVyX5R_hRZ-25" target="CJfr3QqIfbeVyX5R_hRZ-26" edge="1">
          <mxGeometry relative="1" as="geometry" />
        </mxCell>
        <mxCell id="CJfr3QqIfbeVyX5R_hRZ-25" value="" style="rounded=1;whiteSpace=wrap;html=1;flipH=1;fillColor=#6C8EBF;strokeColor=#415573;" parent="1" vertex="1">
          <mxGeometry x="505" y="610" width="120" height="60" as="geometry" />
        </mxCell>
        <mxCell id="CJfr3QqIfbeVyX5R_hRZ-26" value="" style="rounded=1;whiteSpace=wrap;html=1;flipH=1;fillColor=#6C8EBF;strokeColor=#415573;" parent="1" vertex="1">
          <mxGeometry x="660" y="610" width="120" height="60" as="geometry" />
        </mxCell>
        <mxCell id="CJfr3QqIfbeVyX5R_hRZ-42" style="edgeStyle=orthogonalEdgeStyle;rounded=0;orthogonalLoop=1;jettySize=auto;html=1;exitX=1;exitY=0.5;exitDx=0;exitDy=0;entryX=0;entryY=0.5;entryDx=0;entryDy=0;" parent="1" source="CJfr3QqIfbeVyX5R_hRZ-43" target="CJfr3QqIfbeVyX5R_hRZ-45" edge="1">
          <mxGeometry relative="1" as="geometry" />
        </mxCell>
        <mxCell id="CJfr3QqIfbeVyX5R_hRZ-43" value="" style="rounded=1;whiteSpace=wrap;html=1;flipH=1;fillColor=#6C8EBF;strokeColor=#415573;" parent="1" vertex="1">
          <mxGeometry x="40" y="610" width="120" height="60" as="geometry" />
        </mxCell>
        <mxCell id="CJfr3QqIfbeVyX5R_hRZ-44" style="edgeStyle=orthogonalEdgeStyle;rounded=0;orthogonalLoop=1;jettySize=auto;html=1;exitX=1;exitY=0.5;exitDx=0;exitDy=0;entryX=0;entryY=0.5;entryDx=0;entryDy=0;strokeColor=#9C9C9C;" parent="1" source="CJfr3QqIfbeVyX5R_hRZ-45" edge="1">
          <mxGeometry relative="1" as="geometry">
            <mxPoint x="350" y="640" as="targetPoint" />
          </mxGeometry>
        </mxCell>
        <mxCell id="CJfr3QqIfbeVyX5R_hRZ-67" style="edgeStyle=orthogonalEdgeStyle;orthogonalLoop=1;jettySize=auto;html=1;exitX=1;exitY=0.5;exitDx=0;exitDy=0;entryX=0;entryY=0.25;entryDx=0;entryDy=0;curved=1;dashed=1;" parent="1" source="CJfr3QqIfbeVyX5R_hRZ-45" target="CJfr3QqIfbeVyX5R_hRZ-25" edge="1">
          <mxGeometry relative="1" as="geometry">
            <Array as="points">
              <mxPoint x="340" y="640" />
              <mxPoint x="340" y="580" />
              <mxPoint x="470" y="580" />
              <mxPoint x="470" y="625" />
            </Array>
          </mxGeometry>
        </mxCell>
        <mxCell id="CJfr3QqIfbeVyX5R_hRZ-45" value="" style="rounded=1;whiteSpace=wrap;html=1;flipH=1;fillColor=#6C8EBF;strokeColor=#415573;" parent="1" vertex="1">
          <mxGeometry x="195" y="610" width="120" height="60" as="geometry" />
        </mxCell>
        <mxCell id="CJfr3QqIfbeVyX5R_hRZ-49" value="" style="endArrow=none;html=1;rounded=0;" parent="1" edge="1">
          <mxGeometry width="50" height="50" relative="1" as="geometry">
            <mxPoint x="780" y="640" as="sourcePoint" />
            <mxPoint x="800" y="640" as="targetPoint" />
          </mxGeometry>
        </mxCell>
        <mxCell id="CJfr3QqIfbeVyX5R_hRZ-54" value="" style="group" parent="1" vertex="1" connectable="0">
          <mxGeometry x="800" y="626" width="10" height="30" as="geometry" />
        </mxCell>
        <mxCell id="CJfr3QqIfbeVyX5R_hRZ-50" value="" style="endArrow=none;html=1;rounded=0;" parent="CJfr3QqIfbeVyX5R_hRZ-54" edge="1">
          <mxGeometry width="50" height="50" relative="1" as="geometry">
            <mxPoint y="30" as="sourcePoint" />
            <mxPoint as="targetPoint" />
          </mxGeometry>
        </mxCell>
        <mxCell id="CJfr3QqIfbeVyX5R_hRZ-51" value="" style="endArrow=none;html=1;rounded=0;" parent="CJfr3QqIfbeVyX5R_hRZ-54" edge="1">
          <mxGeometry width="50" height="50" relative="1" as="geometry">
            <mxPoint x="5" y="27" as="sourcePoint" />
            <mxPoint x="5" y="4" as="targetPoint" />
          </mxGeometry>
        </mxCell>
        <mxCell id="CJfr3QqIfbeVyX5R_hRZ-53" value="" style="endArrow=none;html=1;rounded=0;" parent="CJfr3QqIfbeVyX5R_hRZ-54" edge="1">
          <mxGeometry width="50" height="50" relative="1" as="geometry">
            <mxPoint x="10" y="22" as="sourcePoint" />
            <mxPoint x="10" y="9" as="targetPoint" />
          </mxGeometry>
        </mxCell>
        <mxCell id="CJfr3QqIfbeVyX5R_hRZ-57" style="edgeStyle=orthogonalEdgeStyle;orthogonalLoop=1;jettySize=auto;html=1;exitX=1;exitY=0.5;exitDx=0;exitDy=0;entryX=0.5;entryY=0;entryDx=0;entryDy=0;curved=1;" parent="1" source="CJfr3QqIfbeVyX5R_hRZ-55" target="CJfr3QqIfbeVyX5R_hRZ-24" edge="1">
          <mxGeometry relative="1" as="geometry" />
        </mxCell>
        <mxCell id="CJfr3QqIfbeVyX5R_hRZ-55" value="&lt;font style=&quot;font-size: 18px;&quot;&gt;T1: read N&lt;/font&gt;" style="ellipse;whiteSpace=wrap;html=1;fillColor=#d5e8d4;strokeColor=#82b366;" parent="1" vertex="1">
          <mxGeometry x="249" y="480" width="120" height="80" as="geometry" />
        </mxCell>
        <mxCell id="CJfr3QqIfbeVyX5R_hRZ-58" style="edgeStyle=orthogonalEdgeStyle;orthogonalLoop=1;jettySize=auto;html=1;exitX=1;exitY=0.5;exitDx=0;exitDy=0;entryX=0.5;entryY=1;entryDx=0;entryDy=0;curved=1;" parent="1" source="CJfr3QqIfbeVyX5R_hRZ-56" target="CJfr3QqIfbeVyX5R_hRZ-24" edge="1">
          <mxGeometry relative="1" as="geometry" />
        </mxCell>
        <mxCell id="CJfr3QqIfbeVyX5R_hRZ-56" value="&lt;font style=&quot;font-size: 18px;&quot;&gt;T2: remove N&lt;/font&gt;" style="ellipse;whiteSpace=wrap;html=1;fillColor=#ffe6cc;strokeColor=#d79b00;" parent="1" vertex="1">
          <mxGeometry x="249" y="720" width="120" height="80" as="geometry" />
        </mxCell>
        <mxCell id="CJfr3QqIfbeVyX5R_hRZ-60" value="Callout1" parent="0" />
        <mxCell id="CJfr3QqIfbeVyX5R_hRZ-61" value="&lt;div style=&quot;text-align: left; font-size: 18px;&quot;&gt;&lt;span style=&quot;background-color: initial;&quot;&gt;&lt;font style=&quot;font-size: 18px;&quot;&gt;T1 obtains pointer to Node N.&lt;/font&gt;&lt;/span&gt;&lt;/div&gt;&lt;div style=&quot;text-align: left; font-size: 18px;&quot;&gt;&lt;span style=&quot;background-color: initial;&quot;&gt;&lt;font style=&quot;font-size: 18px;&quot;&gt;N must continue to exist until T1 is done using it.&amp;nbsp;&lt;/font&gt;&lt;/span&gt;&lt;/div&gt;" style="shape=callout;whiteSpace=wrap;html=1;perimeter=calloutPerimeter;position2=0;spacingLeft=6;size=30;position=0.04;base=20;fillColor=#fff2cc;strokeColor=#d6b656;" parent="CJfr3QqIfbeVyX5R_hRZ-60" vertex="1">
          <mxGeometry x="370" y="400" width="260" height="110" as="geometry" />
        </mxCell>
        <mxCell id="CJfr3QqIfbeVyX5R_hRZ-62" value="&lt;div style=&quot;text-align: left; font-size: 18px;&quot;&gt;&lt;span style=&quot;background-color: initial;&quot;&gt;&lt;font style=&quot;font-size: 18px;&quot;&gt;T2 removes Node N from list.&lt;/font&gt;&lt;/span&gt;&lt;/div&gt;&lt;div style=&quot;text-align: left; font-size: 18px;&quot;&gt;&lt;span style=&quot;background-color: initial;&quot;&gt;&lt;font style=&quot;font-size: 18px;&quot;&gt;Must detect that N is in use and defer deletion.&lt;/font&gt;&lt;/span&gt;&lt;/div&gt;" style="shape=callout;whiteSpace=wrap;html=1;perimeter=calloutPerimeter;position2=0;spacingLeft=6;size=30;position=0.04;base=20;fillColor=#fff2cc;strokeColor=#d6b656;flipV=1;flipH=0;" parent="CJfr3QqIfbeVyX5R_hRZ-60" vertex="1">
          <mxGeometry x="370" y="770" width="260" height="110" as="geometry" />
        </mxCell>
        <mxCell id="hrUHUeJci4aV3lqq5OpW-1" value="Callout2" visible="0" parent="0" />
        <mxCell id="hrUHUeJci4aV3lqq5OpW-2" value="&lt;div style=&quot;text-align: left; font-size: 18px;&quot;&gt;&lt;span style=&quot;background-color: initial;&quot;&gt;&lt;font style=&quot;font-size: 18px;&quot;&gt;T1:&lt;span style=&quot;white-space: pre;&quot;&gt;	&lt;/span&gt;atomic_inc(N-&amp;gt;refcount)&lt;/font&gt;&lt;/span&gt;&lt;/div&gt;&lt;div style=&quot;text-align: left; font-size: 18px;&quot;&gt;&lt;span style=&quot;background-color: initial;&quot;&gt;&lt;font style=&quot;font-size: 18px;&quot;&gt;&lt;span style=&quot;white-space: pre;&quot;&gt;	&lt;/span&gt;use N&lt;br&gt;&lt;/font&gt;&lt;/span&gt;&lt;/div&gt;&lt;div style=&quot;text-align: left; font-size: 18px;&quot;&gt;&lt;span style=&quot;background-color: initial;&quot;&gt;&lt;font style=&quot;font-size: 18px;&quot;&gt;&lt;span style=&quot;white-space: pre;&quot;&gt;	&lt;/span&gt;atomic_dec(N-&amp;gt;recount)&lt;br&gt;&lt;/font&gt;&lt;/span&gt;&lt;/div&gt;" style="shape=callout;whiteSpace=wrap;html=1;perimeter=calloutPerimeter;position2=0;spacingLeft=6;size=30;position=0.04;base=20;fillColor=#fff2cc;strokeColor=#d6b656;" vertex="1" parent="hrUHUeJci4aV3lqq5OpW-1">
          <mxGeometry x="370" y="400" width="260" height="110" as="geometry" />
        </mxCell>
        <mxCell id="hrUHUeJci4aV3lqq5OpW-3" value="&lt;div style=&quot;font-size: 18px;&quot;&gt;&lt;span style=&quot;background-color: initial;&quot;&gt;&lt;font style=&quot;font-size: 18px;&quot;&gt;T2:&lt;span style=&quot;white-space: pre;&quot;&gt;	&lt;/span&gt;&lt;/font&gt;&lt;/span&gt;&lt;span style=&quot;background-color: initial;&quot;&gt;while(N-&amp;gt;ref_count &amp;gt; 1) {};&lt;/span&gt;&lt;/div&gt;&lt;div style=&quot;font-size: 18px;&quot;&gt;&lt;/div&gt;&lt;div style=&quot;font-size: 18px;&quot;&gt;&lt;/div&gt;&lt;div style=&quot;font-size: 18px;&quot;&gt;&lt;span style=&quot;background-color: initial;&quot;&gt;&lt;font style=&quot;font-size: 18px;&quot;&gt;&lt;span style=&quot;white-space: pre;&quot;&gt;&lt;span style=&quot;white-space: pre;&quot;&gt;	&lt;/span&gt;&lt;/span&gt;free(N)&lt;br&gt;&lt;/font&gt;&lt;/span&gt;&lt;/div&gt;" style="shape=callout;whiteSpace=wrap;html=1;perimeter=calloutPerimeter;position2=0;spacingLeft=6;size=30;position=0.04;base=20;fillColor=#fff2cc;strokeColor=#d6b656;flipV=1;flipH=0;align=left;" vertex="1" parent="hrUHUeJci4aV3lqq5OpW-1">
          <mxGeometry x="370" y="770" width="270" height="90" as="geometry" />
        </mxCell>
      </root>
    </mxGraphModel>
  </diagram>
</mxfile>
